<svg xmlns="http://www.w3.org/2000/svg" viewBox="0 0 64 64" fill="#000000">
  <path d="M32 3C15.98 3 3 15.98 3 32s12.98 29 29 29 29-12.98 29-29S48.02 3 32 3zm0 2.25c14.78 0 26.75 11.97 26.75 26.75S46.78 58.75 32 58.75 5.25 46.78 5.25 32 17.22 5.25 32 5.25z"/>
  <path d="M32 13.5a1.1 1.1 0 0 1 1.1 1.1v5.4a1.1 1.1 0 1 1-2.2 0v-5.4a1.1 1.1 0 0 1 1.1-1.1zm0 30.5a1.1 1.1 0 0 1 1.1 1.1v5.4a1.1 1.1 0 1 1-2.2 0v-5.4A1.1 1.1 0 0 1 32 44zm18.4-13.1a1.1 1.1 0 1 1 0 2.2H45a1.1 1.1 0 1 1 0-2.2h5.4zM19 30.9a1.1 1.1 0 1 1 0 2.2h-5.4a1.1 1.1 0 1 1 0-2.2H19zm24.02-11.14a1.1 1.1 0 0 1 1.56 1.56l-3.82 3.82a1.1 1.1 0 0 1-1.56-1.56l3.82-3.82zm-18.78 18.78a1.1 1.1 0 0 1 1.56 1.56l-3.82 3.82a1.1 1.1 0 0 1-1.56-1.56l3.82-3.82zm0-18.78 3.82 3.82a1.1 1.1 0 1 1-1.56 1.56l-3.82-3.82a1.1 1.1 0 1 1 1.56-1.56zm18.78 18.78 3.82 3.82a1.1 1.1 0 0 1-1.56 1.56l-3.82-3.82a1.1 1.1 0 0 1 1.56-1.56z"/>
  <circle cx="32" cy="32" r="5.2"/>
</svg>
